# xmcd CD database file
#
# Track frame offsets:
#	150
#	13350
#	26850
#	42024
#	54292
#	88756
#	113045
#	127293
#	141422
#	150720
#	162997
#	180077
#	192288
#	206412
#	219315
#	232451
#	247207
#	261904
#
# Disc length: 3666 seconds
#
# Revision: 0
# Processed by: cddbd v1.5.2PL0 Copyright (c) Steve Scherf et al.
# Submitted via: CDex 1.70beta2
#
DISCID=0c0e5012
DTITLE=Various Artist - Battle Of Trombones CD3
DYEAR=2005
DGENRE=Jazz
TTITLE0=Lawrence Brown - Blue Cellophane
TTITLE1=Tommy Dorsey - Trombonology
TTITLE2=Bill Harris -  Bijou (Rhumba A La Jazz)
TTITLE3=Kay Winding - Ecuador
TTITLE4=Bill Harris - The Great Life
TTITLE5=Kay Winding - Anthropology (No. 2)
TTITLE6=Tommy Turk - Cardboard
TTITLE7=Bill Harris - Everywhere
TTITLE8=Milt Bernhart - The Lady In Red
TTITLE9=Benny Green - There's A Small Hotel
TTITLE10=Britt Woodman - Sultry Serenade
TTITLE11=Frank Rossolino - Fascinating Rhythm
TTITLE12=Bob Fitzpatrick - Limelight
TTITLE13=Britt Woodman - Theme For Trambean
TTITLE14=Bob Fitzpatrick - A Them For Four Values
TTITLE15=Benny Green - Stardust
TTITLE16=Frank Rossolino - Taboo
TTITLE17=Benny Green - Serenade To Love
EXTD=YEAR: 2005
EXTT0=
EXTT1=
EXTT2=
EXTT3=
EXTT4=
EXTT5=
EXTT6=
EXTT7=
EXTT8=
EXTT9=
EXTT10=
EXTT11=
EXTT12=
EXTT13=
EXTT14=
EXTT15=
EXTT16=
EXTT17=
PLAYORDER=
